<svg xmlns="http://www.w3.org/2000/svg" xmlns:xlink="http://www.w3.org/1999/xlink" width="851" zoomAndPan="magnify" viewBox="0 0 638.25 236.249991" height="315" preserveAspectRatio="xMidYMid meet" version="1.0"><defs><filter x="0%" y="0%" width="100%" height="100%" id="073735daf2"><feColorMatrix values="0 0 0 0 1 0 0 0 0 1 0 0 0 0 1 0 0 0 1 0" color-interpolation-filters="sRGB"/></filter><g/><clipPath id="09d8738523"><path d="M 0.636719 0 L 636.867188 0 L 636.867188 235.503906 L 0.636719 235.503906 Z M 0.636719 0 " clip-rule="nonzero"/></clipPath><clipPath id="7c79e0127d"><path d="M 0.636719 0 L 416 0 L 416 235.503906 L 0.636719 235.503906 Z M 0.636719 0 " clip-rule="nonzero"/></clipPath><clipPath id="4f7cadacbc"><path d="M 0.636719 0 L 415.480469 0 L 415.480469 235.503906 L 0.636719 235.503906 Z M 0.636719 0 " clip-rule="nonzero"/></clipPath><clipPath id="8590330486"><path d="M -102.386719 0.0234375 L 339.191406 -100.140625 L 415.316406 235.460938 L -26.265625 335.625 Z M -102.386719 0.0234375 " clip-rule="nonzero"/></clipPath><clipPath id="49d768a08a"><path d="M 0.636719 0 L 415.480469 0 L 415.480469 235.503906 L 0.636719 235.503906 Z M 0.636719 0 " clip-rule="nonzero"/></clipPath><clipPath id="280b17a211"><path d="M -102.386719 0.0234375 L 339.191406 -100.140625 L 415.316406 235.460938 L -26.265625 335.625 Z M -102.386719 0.0234375 " clip-rule="nonzero"/></clipPath><clipPath id="8622f6fe66"><path d="M 0.636719 0 L 415 0 L 415 235.503906 L 0.636719 235.503906 Z M 0.636719 0 " clip-rule="nonzero"/></clipPath><clipPath id="a2ea2898c4"><path d="M -102.386719 0.0234375 L 339.191406 -100.140625 L 415.316406 235.460938 L -26.265625 335.625 Z M -102.386719 0.0234375 " clip-rule="nonzero"/></clipPath><clipPath id="f6ae583414"><path d="M -102.386719 0.0234375 L 338.847656 -100.0625 L 414.96875 235.539062 L -26.265625 335.625 Z M -102.386719 0.0234375 " clip-rule="nonzero"/></clipPath><clipPath id="d76ce4b6ba"><path d="M -112.441406 -44.304688 L 328.792969 -144.390625 L 424.941406 279.503906 L -16.292969 379.585938 Z M -112.441406 -44.304688 " clip-rule="nonzero"/></clipPath><clipPath id="5650e5d994"><path d="M -112.441406 -44.304688 L 328.792969 -144.390625 L 424.941406 279.503906 L -16.292969 379.585938 Z M -112.441406 -44.304688 " clip-rule="nonzero"/></clipPath><linearGradient x1="-222.479159" gradientTransform="matrix(0.346266, -0.0785426, 0.0785352, 0.346233, 50.035672, 96.185205)" y1="125" x2="1062.268087" gradientUnits="userSpaceOnUse" y2="125" id="d5d70bb818"><stop stop-opacity="1" stop-color="rgb(100%, 100%, 100%)" offset="0"/><stop stop-opacity="1" stop-color="rgb(100%, 100%, 100%)" offset="0.125"/><stop stop-opacity="1" stop-color="rgb(100%, 100%, 100%)" offset="0.15625"/><stop stop-opacity="1" stop-color="rgb(100%, 100%, 100%)" offset="0.171875"/><stop stop-opacity="1" stop-color="rgb(99.967957%, 99.740601%, 99.433899%)" offset="0.175781"/><stop stop-opacity="1" stop-color="rgb(99.937439%, 99.482727%, 98.869324%)" offset="0.179688"/><stop stop-opacity="1" stop-color="rgb(99.897766%, 99.156189%, 98.158264%)" offset="0.183594"/><stop stop-opacity="1" stop-color="rgb(99.859619%, 98.831177%, 97.447205%)" offset="0.1875"/><stop stop-opacity="1" stop-color="rgb(99.819946%, 98.504639%, 96.734619%)" offset="0.191406"/><stop stop-opacity="1" stop-color="rgb(99.781799%, 98.179626%, 96.02356%)" offset="0.195312"/><stop stop-opacity="1" stop-color="rgb(99.742126%, 97.853088%, 95.3125%)" offset="0.199219"/><stop stop-opacity="1" stop-color="rgb(99.703979%, 97.528076%, 94.60144%)" offset="0.203125"/><stop stop-opacity="1" stop-color="rgb(99.664307%, 97.201538%, 93.888855%)" offset="0.207031"/><stop stop-opacity="1" stop-color="rgb(99.62616%, 96.876526%, 93.177795%)" offset="0.210938"/><stop stop-opacity="1" stop-color="rgb(99.586487%, 96.549988%, 92.46521%)" offset="0.214844"/><stop stop-opacity="1" stop-color="rgb(99.54834%, 96.224976%, 91.75415%)" offset="0.21875"/><stop stop-opacity="1" stop-color="rgb(99.508667%, 95.898438%, 91.043091%)" offset="0.222656"/><stop stop-opacity="1" stop-color="rgb(99.47052%, 95.573425%, 90.332031%)" offset="0.226562"/><stop stop-opacity="1" stop-color="rgb(99.430847%, 95.246887%, 89.619446%)" offset="0.230469"/><stop stop-opacity="1" stop-color="rgb(99.3927%, 94.921875%, 88.908386%)" offset="0.234375"/><stop stop-opacity="1" stop-color="rgb(99.353027%, 94.596863%, 88.197327%)" offset="0.238281"/><stop stop-opacity="1" stop-color="rgb(99.31488%, 94.271851%, 87.486267%)" offset="0.242187"/><stop stop-opacity="1" stop-color="rgb(99.275208%, 93.945312%, 86.773682%)" offset="0.246094"/><stop stop-opacity="1" stop-color="rgb(99.237061%, 93.6203%, 86.062622%)" offset="0.25"/><stop stop-opacity="1" stop-color="rgb(99.197388%, 93.293762%, 85.351562%)" offset="0.253906"/><stop stop-opacity="1" stop-color="rgb(99.159241%, 92.96875%, 84.640503%)" offset="0.257812"/><stop stop-opacity="1" stop-color="rgb(99.119568%, 92.642212%, 83.927917%)" offset="0.261719"/><stop stop-opacity="1" stop-color="rgb(99.081421%, 92.3172%, 83.216858%)" offset="0.265625"/><stop stop-opacity="1" stop-color="rgb(99.041748%, 91.990662%, 82.505798%)" offset="0.269531"/><stop stop-opacity="1" stop-color="rgb(99.003601%, 91.665649%, 81.794739%)" offset="0.273437"/><stop stop-opacity="1" stop-color="rgb(98.963928%, 91.339111%, 81.082153%)" offset="0.277344"/><stop stop-opacity="1" stop-color="rgb(98.925781%, 91.014099%, 80.371094%)" offset="0.28125"/><stop stop-opacity="1" stop-color="rgb(98.886108%, 90.687561%, 79.658508%)" offset="0.285156"/><stop stop-opacity="1" stop-color="rgb(98.847961%, 90.362549%, 78.947449%)" offset="0.289062"/><stop stop-opacity="1" stop-color="rgb(98.808289%, 90.036011%, 78.236389%)" offset="0.292969"/><stop stop-opacity="1" stop-color="rgb(98.770142%, 89.710999%, 77.52533%)" offset="0.296875"/><stop stop-opacity="1" stop-color="rgb(98.730469%, 89.385986%, 76.812744%)" offset="0.300781"/><stop stop-opacity="1" stop-color="rgb(98.692322%, 89.060974%, 76.101685%)" offset="0.304687"/><stop stop-opacity="1" stop-color="rgb(98.652649%, 88.734436%, 75.390625%)" offset="0.308594"/><stop stop-opacity="1" stop-color="rgb(98.614502%, 88.409424%, 74.679565%)" offset="0.3125"/><stop stop-opacity="1" stop-color="rgb(98.574829%, 88.082886%, 73.96698%)" offset="0.316406"/><stop stop-opacity="1" stop-color="rgb(98.536682%, 87.757874%, 73.25592%)" offset="0.320312"/><stop stop-opacity="1" stop-color="rgb(98.497009%, 87.431335%, 72.544861%)" offset="0.324219"/><stop stop-opacity="1" stop-color="rgb(98.458862%, 87.106323%, 71.833801%)" offset="0.328125"/><stop stop-opacity="1" stop-color="rgb(98.419189%, 86.779785%, 71.121216%)" offset="0.332031"/><stop stop-opacity="1" stop-color="rgb(98.381042%, 86.454773%, 70.410156%)" offset="0.335938"/><stop stop-opacity="1" stop-color="rgb(98.34137%, 86.128235%, 69.699097%)" offset="0.339844"/><stop stop-opacity="1" stop-color="rgb(98.303223%, 85.803223%, 68.988037%)" offset="0.34375"/><stop stop-opacity="1" stop-color="rgb(98.26355%, 85.476685%, 68.275452%)" offset="0.347656"/><stop stop-opacity="1" stop-color="rgb(98.225403%, 85.151672%, 67.564392%)" offset="0.351562"/><stop stop-opacity="1" stop-color="rgb(98.18573%, 84.825134%, 66.851807%)" offset="0.355469"/><stop stop-opacity="1" stop-color="rgb(98.147583%, 84.500122%, 66.140747%)" offset="0.359375"/><stop stop-opacity="1" stop-color="rgb(98.10791%, 84.17511%, 65.429688%)" offset="0.363281"/><stop stop-opacity="1" stop-color="rgb(98.069763%, 83.850098%, 64.718628%)" offset="0.367188"/><stop stop-opacity="1" stop-color="rgb(98.03009%, 83.52356%, 64.006042%)" offset="0.371094"/><stop stop-opacity="1" stop-color="rgb(97.991943%, 83.198547%, 63.294983%)" offset="0.375"/><stop stop-opacity="1" stop-color="rgb(97.952271%, 82.872009%, 62.583923%)" offset="0.378906"/><stop stop-opacity="1" stop-color="rgb(97.914124%, 82.546997%, 61.872864%)" offset="0.382812"/><stop stop-opacity="1" stop-color="rgb(97.874451%, 82.220459%, 61.160278%)" offset="0.386719"/><stop stop-opacity="1" stop-color="rgb(97.836304%, 81.895447%, 60.449219%)" offset="0.390625"/><stop stop-opacity="1" stop-color="rgb(97.796631%, 81.568909%, 59.738159%)" offset="0.394531"/><stop stop-opacity="1" stop-color="rgb(97.758484%, 81.243896%, 59.0271%)" offset="0.398437"/><stop stop-opacity="1" stop-color="rgb(97.718811%, 80.917358%, 58.314514%)" offset="0.402344"/><stop stop-opacity="1" stop-color="rgb(97.680664%, 80.592346%, 57.603455%)" offset="0.40625"/><stop stop-opacity="1" stop-color="rgb(97.640991%, 80.265808%, 56.892395%)" offset="0.410156"/><stop stop-opacity="1" stop-color="rgb(97.602844%, 79.940796%, 56.181335%)" offset="0.414062"/><stop stop-opacity="1" stop-color="rgb(97.563171%, 79.614258%, 55.46875%)" offset="0.417969"/><stop stop-opacity="1" stop-color="rgb(97.525024%, 79.289246%, 54.75769%)" offset="0.421875"/><stop stop-opacity="1" stop-color="rgb(97.485352%, 78.964233%, 54.046631%)" offset="0.425781"/><stop stop-opacity="1" stop-color="rgb(97.447205%, 78.639221%, 53.335571%)" offset="0.429687"/><stop stop-opacity="1" stop-color="rgb(97.407532%, 78.312683%, 52.622986%)" offset="0.433594"/><stop stop-opacity="1" stop-color="rgb(97.369385%, 77.987671%, 51.911926%)" offset="0.4375"/><stop stop-opacity="1" stop-color="rgb(97.329712%, 77.661133%, 51.199341%)" offset="0.441406"/><stop stop-opacity="1" stop-color="rgb(97.291565%, 77.336121%, 50.488281%)" offset="0.445312"/><stop stop-opacity="1" stop-color="rgb(97.251892%, 77.009583%, 49.777222%)" offset="0.449219"/><stop stop-opacity="1" stop-color="rgb(97.213745%, 76.68457%, 49.066162%)" offset="0.453125"/><stop stop-opacity="1" stop-color="rgb(97.174072%, 76.358032%, 48.353577%)" offset="0.457031"/><stop stop-opacity="1" stop-color="rgb(97.135925%, 76.03302%, 47.642517%)" offset="0.460937"/><stop stop-opacity="1" stop-color="rgb(97.096252%, 75.706482%, 46.931458%)" offset="0.464844"/><stop stop-opacity="1" stop-color="rgb(97.058105%, 75.38147%, 46.220398%)" offset="0.46875"/><stop stop-opacity="1" stop-color="rgb(97.018433%, 75.054932%, 45.507812%)" offset="0.472656"/><stop stop-opacity="1" stop-color="rgb(96.980286%, 74.729919%, 44.796753%)" offset="0.476562"/><stop stop-opacity="1" stop-color="rgb(96.940613%, 74.403381%, 44.085693%)" offset="0.480469"/><stop stop-opacity="1" stop-color="rgb(96.902466%, 74.078369%, 43.374634%)" offset="0.484375"/><stop stop-opacity="1" stop-color="rgb(96.862793%, 73.753357%, 42.662048%)" offset="0.488281"/><stop stop-opacity="1" stop-color="rgb(96.824646%, 73.428345%, 41.950989%)" offset="0.492188"/><stop stop-opacity="1" stop-color="rgb(96.784973%, 73.101807%, 41.239929%)" offset="0.496094"/><stop stop-opacity="1" stop-color="rgb(96.746826%, 72.776794%, 40.52887%)" offset="0.5"/><stop stop-opacity="1" stop-color="rgb(96.707153%, 72.450256%, 39.816284%)" offset="0.503906"/><stop stop-opacity="1" stop-color="rgb(96.669006%, 72.125244%, 39.105225%)" offset="0.507812"/><stop stop-opacity="1" stop-color="rgb(96.629333%, 71.798706%, 38.392639%)" offset="0.511719"/><stop stop-opacity="1" stop-color="rgb(96.591187%, 71.473694%, 37.68158%)" offset="0.515625"/><stop stop-opacity="1" stop-color="rgb(96.551514%, 71.147156%, 36.97052%)" offset="0.519531"/><stop stop-opacity="1" stop-color="rgb(96.513367%, 70.822144%, 36.25946%)" offset="0.523438"/><stop stop-opacity="1" stop-color="rgb(96.473694%, 70.495605%, 35.546875%)" offset="0.527344"/><stop stop-opacity="1" stop-color="rgb(96.435547%, 70.170593%, 34.835815%)" offset="0.53125"/><stop stop-opacity="1" stop-color="rgb(96.395874%, 69.844055%, 34.124756%)" offset="0.535156"/><stop stop-opacity="1" stop-color="rgb(96.357727%, 69.519043%, 33.413696%)" offset="0.539062"/><stop stop-opacity="1" stop-color="rgb(96.318054%, 69.192505%, 32.701111%)" offset="0.542969"/><stop stop-opacity="1" stop-color="rgb(96.279907%, 68.867493%, 31.990051%)" offset="0.546875"/><stop stop-opacity="1" stop-color="rgb(96.240234%, 68.540955%, 31.278992%)" offset="0.550781"/><stop stop-opacity="1" stop-color="rgb(96.202087%, 68.215942%, 30.567932%)" offset="0.554688"/><stop stop-opacity="1" stop-color="rgb(96.162415%, 67.89093%, 29.855347%)" offset="0.558594"/><stop stop-opacity="1" stop-color="rgb(96.124268%, 67.565918%, 29.144287%)" offset="0.5625"/><stop stop-opacity="1" stop-color="rgb(96.084595%, 67.23938%, 28.433228%)" offset="0.566406"/><stop stop-opacity="1" stop-color="rgb(96.046448%, 66.914368%, 27.722168%)" offset="0.570312"/><stop stop-opacity="1" stop-color="rgb(96.006775%, 66.58783%, 27.009583%)" offset="0.574219"/><stop stop-opacity="1" stop-color="rgb(95.968628%, 66.262817%, 26.298523%)" offset="0.578125"/><stop stop-opacity="1" stop-color="rgb(95.928955%, 65.936279%, 25.585938%)" offset="0.582031"/><stop stop-opacity="1" stop-color="rgb(95.890808%, 65.611267%, 24.874878%)" offset="0.585937"/><stop stop-opacity="1" stop-color="rgb(95.851135%, 65.284729%, 24.163818%)" offset="0.589844"/><stop stop-opacity="1" stop-color="rgb(95.812988%, 64.959717%, 23.452759%)" offset="0.59375"/><stop stop-opacity="1" stop-color="rgb(95.773315%, 64.633179%, 22.740173%)" offset="0.597656"/><stop stop-opacity="1" stop-color="rgb(95.735168%, 64.308167%, 22.029114%)" offset="0.601562"/><stop stop-opacity="1" stop-color="rgb(95.71228%, 64.112854%, 21.603394%)" offset="0.605469"/><stop stop-opacity="1" stop-color="rgb(95.689392%, 63.919067%, 21.179199%)" offset="0.609375"/><stop stop-opacity="1" stop-color="rgb(95.689392%, 63.919067%, 21.179199%)" offset="0.625"/><stop stop-opacity="1" stop-color="rgb(95.689392%, 63.919067%, 21.179199%)" offset="0.75"/><stop stop-opacity="1" stop-color="rgb(95.689392%, 63.919067%, 21.179199%)" offset="1"/></linearGradient><clipPath id="ad19a040b3"><rect x="0" width="416" y="0" height="236"/></clipPath><clipPath id="5b4f2d2ff5"><path d="M 0.636719 0 L 415.480469 0 L 415.480469 235.503906 L 0.636719 235.503906 Z M 0.636719 0 " clip-rule="nonzero"/></clipPath><clipPath id="f1af7fe2f6"><path d="M -102.386719 0.0234375 L 339.191406 -100.140625 L 415.316406 235.460938 L -26.265625 335.625 Z M -102.386719 0.0234375 " clip-rule="nonzero"/></clipPath><clipPath id="7d91890f02"><path d="M 0.636719 55 L 210 55 L 210 212 L 0.636719 212 Z M 0.636719 55 " clip-rule="nonzero"/></clipPath><clipPath id="44cbd8a6b6"><path d="M -102.386719 0.0234375 L 339.191406 -100.140625 L 415.316406 235.460938 L -26.265625 335.625 Z M -102.386719 0.0234375 " clip-rule="nonzero"/></clipPath><clipPath id="10bb81f900"><path d="M 161 32 L 317 32 L 317 189 L 161 189 Z M 161 32 " clip-rule="nonzero"/></clipPath><clipPath id="4161684cee"><path d="M -102.386719 0.0234375 L 339.191406 -100.140625 L 415.316406 235.460938 L -26.265625 335.625 Z M -102.386719 0.0234375 " clip-rule="nonzero"/></clipPath><clipPath id="93671d1a08"><rect x="0" width="416" y="0" height="236"/></clipPath><clipPath id="5f29388833"><rect x="0" width="416" y="0" height="236"/></clipPath><mask id="deda504e37"><g filter="url(#073735daf2)"><g transform="matrix(1, 0, 0, 1, 0, 0)"><g clip-path="url(#5f29388833)"><g clip-path="url(#5b4f2d2ff5)"><g clip-path="url(#f1af7fe2f6)"><g transform="matrix(1, 0, 0, 1, 0, 0)"><g clip-path="url(#93671d1a08)"><g clip-path="url(#7d91890f02)"><g clip-path="url(#44cbd8a6b6)"><g fill="#000000" fill-opacity="1"><g transform="translate(68.123748, 174.742905)"><g><path d="M 116.640625 -103.5 C 116.585938 -103.101562 116.53125 -102.707031 116.46875 -102.3125 C 115.875 -98.3125 115.164062 -94.335938 114.34375 -90.390625 C 109.875 -70.890625 104.648438 -51.816406 98.671875 -33.171875 C 96.710938 -27.140625 94.664062 -21.191406 92.53125 -15.328125 C 90.394531 -9.460938 88.226562 -3.613281 86.03125 2.21875 C 85.519531 3.59375 84.992188 4.972656 84.453125 6.359375 C 84.429688 6.460938 84.40625 6.539062 84.375 6.59375 C 84.269531 7 84.125 7.347656 83.9375 7.640625 C 83.75 7.941406 83.453125 8.140625 83.046875 8.234375 C 82.867188 8.273438 82.671875 8.273438 82.453125 8.234375 C 82.234375 8.191406 82.046875 8.109375 81.890625 7.984375 C 81.753906 7.890625 81.632812 7.707031 81.53125 7.4375 C 81.4375 7.175781 81.410156 6.957031 81.453125 6.78125 C 81.722656 5.488281 82.070312 4.234375 82.5 3.015625 C 83.457031 0.234375 84.414062 -2.550781 85.375 -5.34375 C 87.1875 -10.5625 88.953125 -15.765625 90.671875 -20.953125 C 94.472656 -32.546875 97.953125 -44.285156 101.109375 -56.171875 C 104.265625 -68.066406 107.257812 -80.039062 110.09375 -92.09375 C 111.269531 -96.757812 112.007812 -101.632812 112.3125 -106.71875 C 112.40625 -107.613281 112.421875 -108.523438 112.359375 -109.453125 C 112.304688 -110.378906 112.175781 -111.320312 111.96875 -112.28125 C 111.375 -114.289062 110.304688 -114.976562 108.765625 -114.34375 C 107.410156 -113.75 106.171875 -113.003906 105.046875 -112.109375 C 102.398438 -109.992188 99.828125 -107.738281 97.328125 -105.34375 C 83.921875 -92.375 72.414062 -77.445312 62.8125 -60.5625 C 62.6875 -60.300781 62.539062 -60.035156 62.375 -59.765625 C 59.039062 -53.960938 55.753906 -48.128906 52.515625 -42.265625 C 49.285156 -36.410156 46.207031 -30.441406 43.28125 -24.359375 C 42.6875 -23.078125 42.023438 -21.863281 41.296875 -20.71875 C 40.546875 -19.476562 39.457031 -18.8125 38.03125 -18.71875 C 37.425781 -18.664062 36.878906 -18.84375 36.390625 -19.25 C 35.898438 -19.664062 35.625 -20.210938 35.5625 -20.890625 C 35.425781 -22.785156 35.425781 -24.644531 35.5625 -26.46875 C 35.988281 -32.21875 36.523438 -37.925781 37.171875 -43.59375 C 37.253906 -44.457031 37.320312 -45.285156 37.375 -46.078125 C 37.414062 -48.160156 37.695312 -50.128906 38.21875 -51.984375 C 38.207031 -52.023438 38.179688 -52.046875 38.140625 -52.046875 C 37.878906 -52.117188 37.628906 -52.160156 37.390625 -52.171875 C 37.148438 -52.191406 36.945312 -52.066406 36.78125 -51.796875 C 36.175781 -50.710938 35.609375 -49.601562 35.078125 -48.46875 C 30.816406 -38.738281 26.628906 -28.945312 22.515625 -19.09375 C 18.410156 -9.238281 14.472656 0.722656 10.703125 10.796875 C 10.410156 11.742188 10.023438 12.550781 9.546875 13.21875 C 9.078125 13.894531 8.328125 14.253906 7.296875 14.296875 C 6.828125 14.285156 6.421875 14.09375 6.078125 13.71875 C 5.734375 13.351562 5.585938 12.953125 5.640625 12.515625 C 5.890625 11.203125 6.210938 9.9375 6.609375 8.71875 C 7.691406 5.238281 8.753906 1.757812 9.796875 -1.71875 C 11.910156 -8.601562 13.988281 -15.515625 16.03125 -22.453125 C 19.238281 -33.085938 21.757812 -44.09375 23.59375 -55.46875 C 24.320312 -59.851562 24.707031 -64.367188 24.75 -69.015625 C 24.769531 -71.492188 24.453125 -74 23.796875 -76.53125 C 22.609375 -80.5625 20.585938 -83.175781 17.734375 -84.375 C 14.878906 -85.582031 11.46875 -85.6875 7.5 -84.6875 C 3.53125 -83.695312 -0.703125 -81.878906 -5.203125 -79.234375 C -9.710938 -76.597656 -14.226562 -73.4375 -18.75 -69.75 C -23.28125 -66.0625 -27.566406 -62.148438 -31.609375 -58.015625 C -35.660156 -53.890625 -39.175781 -49.835938 -42.15625 -45.859375 C -45.132812 -41.878906 -47.347656 -38.28125 -48.796875 -35.0625 C -50.273438 -31.539062 -51.359375 -27.785156 -52.046875 -23.796875 C -52.410156 -21.867188 -52.425781 -19.875 -52.09375 -17.8125 C -52.039062 -17.394531 -52.171875 -17.039062 -52.484375 -16.75 C -52.804688 -16.46875 -53.203125 -16.316406 -53.671875 -16.296875 C -54.421875 -16.359375 -54.988281 -16.816406 -55.375 -17.671875 C -55.757812 -18.816406 -55.910156 -19.910156 -55.828125 -20.953125 C -55.722656 -23.546875 -55.359375 -26.070312 -54.734375 -28.53125 C -53.554688 -32.800781 -51.335938 -37.40625 -48.078125 -42.34375 C -44.816406 -47.28125 -40.828125 -52.203125 -36.109375 -57.109375 C -31.390625 -62.023438 -26.335938 -66.597656 -20.953125 -70.828125 C -15.566406 -75.066406 -10.164062 -78.628906 -4.75 -81.515625 C 0.652344 -84.410156 5.6875 -86.304688 10.34375 -87.203125 C 15 -88.097656 18.929688 -87.65625 22.140625 -85.875 C 25.359375 -84.101562 27.507812 -80.644531 28.59375 -75.5 C 29.207031 -72.164062 29.40625 -68.914062 29.1875 -65.75 C 28.875 -61.070312 28.332031 -56.503906 27.5625 -52.046875 C 26.800781 -47.585938 25.914062 -43.1875 24.90625 -38.84375 C 24.582031 -37.507812 24.585938 -36.890625 24.921875 -36.984375 C 25.253906 -37.085938 25.648438 -37.660156 26.109375 -38.703125 C 27.796875 -42.441406 29.488281 -46.148438 31.1875 -49.828125 C 32.351562 -52.273438 33.5625 -54.695312 34.8125 -57.09375 C 34.96875 -57.425781 35.128906 -57.753906 35.296875 -58.078125 C 36.003906 -59.484375 36.992188 -60.546875 38.265625 -61.265625 C 39.253906 -61.722656 40.175781 -61.6875 41.03125 -61.15625 C 41.894531 -60.625 42.375 -59.648438 42.46875 -58.234375 C 42.457031 -58.078125 42.445312 -57.925781 42.4375 -57.78125 C 42.476562 -55.914062 42.453125 -54.085938 42.359375 -52.296875 C 41.984375 -47.890625 41.570312 -43.503906 41.125 -39.140625 C 40.925781 -36.910156 40.734375 -34.644531 40.546875 -32.34375 C 40.472656 -32.007812 40.398438 -31.40625 40.328125 -30.53125 C 40.222656 -29.769531 40.125 -29.015625 40.03125 -28.265625 C 39.945312 -27.523438 39.875 -26.957031 39.8125 -26.5625 C 39.96875 -26.75 41.195312 -28.976562 43.5 -33.25 C 46.644531 -39.0625 50.367188 -45.878906 54.671875 -53.703125 C 58.984375 -61.535156 62.394531 -67.550781 64.90625 -71.75 C 69.613281 -79.269531 74.769531 -86.304688 80.375 -92.859375 C 85.988281 -99.421875 91.957031 -105.5625 98.28125 -111.28125 C 99.851562 -112.601562 101.492188 -113.851562 103.203125 -115.03125 C 103.578125 -115.269531 103.9375 -115.519531 104.28125 -115.78125 C 105.894531 -116.90625 107.726562 -117.601562 109.78125 -117.875 C 113.695312 -118.382812 116.003906 -116.347656 116.703125 -111.765625 C 117.117188 -108.929688 117.097656 -106.175781 116.640625 -103.5 Z M 37.9375 -52.1875 C 38.0625 -52.132812 38.148438 -52.085938 38.203125 -52.046875 C 38.203125 -52.046875 38.207031 -52.023438 38.21875 -51.984375 C 38.257812 -51.992188 38.273438 -52.019531 38.265625 -52.0625 C 38.171875 -52.09375 38.0625 -52.132812 37.9375 -52.1875 Z M 37.9375 -52.1875 "/></g></g></g></g></g><g clip-path="url(#10bb81f900)"><g clip-path="url(#4161684cee)"><g fill="#000000" fill-opacity="1"><g transform="translate(182.572719, 148.782746)"><g><path d="M 103.59375 -106.578125 C 106.8125 -101.492188 107.640625 -95.867188 106.078125 -89.703125 C 105.929688 -89.117188 105.71875 -88.566406 105.4375 -88.046875 C 105.164062 -87.535156 104.71875 -87.132812 104.09375 -86.84375 C 103.65625 -86.664062 103.234375 -86.6875 102.828125 -86.90625 C 102.429688 -87.125 102.226562 -87.429688 102.21875 -87.828125 C 102.3125 -88.660156 102.410156 -89.460938 102.515625 -90.234375 C 102.566406 -90.640625 102.648438 -91.03125 102.765625 -91.40625 C 103.265625 -95.539062 102.644531 -99.378906 100.90625 -102.921875 C 98.96875 -106.972656 95.769531 -109.203125 91.3125 -109.609375 C 88.738281 -109.785156 86.21875 -109.625 83.75 -109.125 C 81.289062 -108.625 78.847656 -107.867188 76.421875 -106.859375 C 69.035156 -103.691406 62.015625 -99.738281 55.359375 -95 C 45.085938 -87.832031 35.609375 -79.660156 26.921875 -70.484375 C 19.441406 -62.609375 13.085938 -53.878906 7.859375 -44.296875 C 6.035156 -40.992188 4.484375 -37.566406 3.203125 -34.015625 C 1.921875 -30.472656 1.082031 -26.8125 0.6875 -23.03125 C 0.332031 -19.25 0.578125 -15.582031 1.421875 -12.03125 C 2.429688 -8.21875 4.144531 -5.160156 6.5625 -2.859375 C 8.976562 -0.554688 11.847656 0.867188 15.171875 1.421875 C 18.503906 1.972656 22.015625 1.503906 25.703125 0.015625 C 30.410156 -1.921875 34.648438 -4.722656 38.421875 -8.390625 C 40.660156 -10.503906 42.6875 -12.769531 44.5 -15.1875 C 46.3125 -17.601562 48.015625 -20.117188 49.609375 -22.734375 C 53.472656 -29.140625 56.691406 -35.847656 59.265625 -42.859375 C 60.765625 -46.984375 61.816406 -51.222656 62.421875 -55.578125 C 62.472656 -55.734375 62.5 -55.90625 62.5 -56.09375 C 62.65625 -57.113281 62.851562 -58.117188 63.09375 -59.109375 C 63.519531 -60.503906 64.507812 -61.289062 66.0625 -61.46875 C 67.007812 -61.570312 67.648438 -61.15625 67.984375 -60.21875 C 68.304688 -58.769531 68.347656 -57.300781 68.109375 -55.8125 C 66.921875 -45.382812 65.414062 -34.992188 63.59375 -24.640625 C 63.5625 -24.398438 63.519531 -24.15625 63.46875 -23.90625 C 63.34375 -23.40625 63.25 -22.914062 63.1875 -22.4375 C 63.164062 -22.300781 63.148438 -22.160156 63.140625 -22.015625 C 63.023438 -21.429688 63.015625 -20.847656 63.109375 -20.265625 C 63.160156 -20.035156 63.273438 -19.878906 63.453125 -19.796875 C 63.640625 -19.722656 63.847656 -19.671875 64.078125 -19.640625 C 64.390625 -19.609375 64.644531 -19.53125 64.84375 -19.40625 C 64.90625 -19.414062 64.96875 -19.394531 65.03125 -19.34375 C 65.164062 -19.25 65.296875 -19.144531 65.421875 -19.03125 C 65.546875 -18.925781 65.539062 -18.738281 65.40625 -18.46875 C 65.34375 -18.21875 65.191406 -17.992188 64.953125 -17.796875 C 64.703125 -17.585938 64.425781 -17.453125 64.125 -17.390625 C 63.257812 -17.285156 62.632812 -16.945312 62.25 -16.375 C 61.863281 -15.8125 61.59375 -15.125 61.4375 -14.3125 C 60.820312 -11.519531 60.164062 -8.738281 59.46875 -5.96875 C 58.09375 -0.113281 56.359375 5.664062 54.265625 11.375 C 52.972656 14.945312 51.394531 18.398438 49.53125 21.734375 C 47.625 25.253906 45.097656 28.238281 41.953125 30.6875 C 40.234375 32.007812 38.375 32.941406 36.375 33.484375 C 34.113281 34.179688 32.113281 34.0625 30.375 33.125 C 28.644531 32.1875 27.429688 30.585938 26.734375 28.328125 C 26.140625 26.398438 25.953125 24.375 26.171875 22.25 C 26.722656 18.15625 28.015625 14.3125 30.046875 10.71875 C 35.148438 1.25 42.054688 -6.5 50.765625 -12.53125 C 52.210938 -13.53125 53.6875 -14.453125 55.1875 -15.296875 C 55.34375 -15.429688 55.523438 -15.539062 55.734375 -15.625 C 56.847656 -16.257812 57.554688 -17.195312 57.859375 -18.4375 C 58.078125 -19.707031 58.316406 -20.976562 58.578125 -22.25 C 59.359375 -25.675781 59.894531 -29.125 60.1875 -32.59375 C 60.195312 -32.695312 60.175781 -32.785156 60.125 -32.859375 C 60.070312 -32.890625 60.039062 -32.925781 60.03125 -32.96875 C 59.5625 -32.769531 59.21875 -32.484375 59 -32.109375 C 58.78125 -31.734375 58.570312 -31.34375 58.375 -30.9375 C 58.300781 -30.675781 58.203125 -30.414062 58.078125 -30.15625 C 55.578125 -25.28125 52.753906 -20.585938 49.609375 -16.078125 C 45.785156 -10.597656 41.210938 -6.003906 35.890625 -2.296875 C 32.847656 -0.203125 29.675781 1.441406 26.375 2.640625 C 23.070312 3.835938 19.664062 4.476562 16.15625 4.5625 C 12.050781 4.664062 8.328125 3.539062 4.984375 1.1875 C 1.640625 -1.164062 -0.8125 -4.53125 -2.375 -8.90625 C -3.320312 -11.65625 -3.847656 -14.453125 -3.953125 -17.296875 C -4.066406 -20.148438 -3.84375 -23.046875 -3.28125 -25.984375 C -2.613281 -29.273438 -1.679688 -32.460938 -0.484375 -35.546875 C 0.699219 -38.628906 2.109375 -41.660156 3.734375 -44.640625 C 9.441406 -55.117188 16.476562 -64.609375 24.84375 -73.109375 C 30.820312 -79.253906 37.113281 -84.929688 43.71875 -90.140625 C 50.332031 -95.359375 57.316406 -100.039062 64.671875 -104.1875 C 67.890625 -106.050781 71.21875 -107.664062 74.65625 -109.03125 C 78.09375 -110.394531 81.609375 -111.410156 85.203125 -112.078125 C 88.972656 -112.804688 92.671875 -112.738281 96.296875 -111.875 C 99.453125 -111.082031 101.882812 -109.316406 103.59375 -106.578125 Z M 56.203125 -11.734375 C 56.210938 -12.066406 56.109375 -12.316406 55.890625 -12.484375 C 55.679688 -12.648438 55.421875 -12.644531 55.109375 -12.46875 C 54.453125 -12.09375 53.820312 -11.691406 53.21875 -11.265625 C 45.84375 -5.804688 39.773438 0.90625 35.015625 8.875 C 33.273438 11.738281 31.9375 14.773438 31 17.984375 C 30.226562 20.273438 30.019531 22.8125 30.375 25.59375 C 30.382812 25.632812 30.40625 25.71875 30.4375 25.84375 C 30.476562 26.21875 30.582031 26.6875 30.75 27.25 C 31.4375 29.238281 32.453125 30.445312 33.796875 30.875 C 35.140625 31.3125 36.707031 30.898438 38.5 29.640625 C 41.039062 27.710938 43.117188 25.332031 44.734375 22.5 C 46.753906 19.070312 48.414062 15.492188 49.71875 11.765625 C 51.050781 8.148438 52.222656 4.476562 53.234375 0.75 C 54.242188 -2.96875 55.164062 -6.695312 56 -10.4375 C 56.09375 -10.882812 56.164062 -11.296875 56.21875 -11.671875 C 56.207031 -11.710938 56.203125 -11.734375 56.203125 -11.734375 Z M 56.203125 -11.734375 "/></g></g></g></g></g></g></g></g></g></g></g></g></mask><clipPath id="19ebe0146a"><path d="M 0.636719 0 L 415 0 L 415 235.503906 L 0.636719 235.503906 Z M 0.636719 0 " clip-rule="nonzero"/></clipPath><clipPath id="ea4c560a2b"><path d="M -102.386719 0.0234375 L 339.191406 -100.140625 L 415.316406 235.460938 L -26.265625 335.625 Z M -102.386719 0.0234375 " clip-rule="nonzero"/></clipPath><clipPath id="c1f6fe1162"><path d="M -102.386719 0.0234375 L 338.847656 -100.0625 L 414.96875 235.539062 L -26.265625 335.625 Z M -102.386719 0.0234375 " clip-rule="nonzero"/></clipPath><clipPath id="19d1ce0916"><path d="M -112.441406 -44.304688 L 328.792969 -144.390625 L 424.941406 279.503906 L -16.292969 379.585938 Z M -112.441406 -44.304688 " clip-rule="nonzero"/></clipPath><clipPath id="3da3ca740c"><path d="M -112.441406 -44.304688 L 328.792969 -144.390625 L 424.941406 279.503906 L -16.292969 379.585938 Z M -112.441406 -44.304688 " clip-rule="nonzero"/></clipPath><clipPath id="2a688b17d5"><rect x="0" width="416" y="0" height="236"/></clipPath><clipPath id="d20f4d5bd9"><rect x="0" width="416" y="0" height="236"/></clipPath><clipPath id="3b6d4c510f"><rect x="0" width="416" y="0" height="236"/></clipPath></defs><g clip-path="url(#09d8738523)"></g><g clip-path="url(#7c79e0127d)"><g transform="matrix(1, 0, 0, 1, 0, 0)"><g clip-path="url(#3b6d4c510f)"><g clip-path="url(#4f7cadacbc)"><g clip-path="url(#8590330486)"><g transform="matrix(1, 0, 0, 1, 0, 0)"><g clip-path="url(#d20f4d5bd9)"><g clip-path="url(#49d768a08a)"><g clip-path="url(#280b17a211)"><g mask="url(#deda504e37)"><g transform="matrix(1, 0, 0, 1, 0, 0)"><g clip-path="url(#2a688b17d5)"><g clip-path="url(#19ebe0146a)"><g clip-path="url(#ea4c560a2b)"><g clip-path="url(#c1f6fe1162)"><g clip-path="url(#19d1ce0916)"><g clip-path="url(#3da3ca740c)"><path fill="url(#d5d70bb818)" d="M -50.167969 11.523438 L 20.910156 324.886719 L 465.773438 223.976562 L 394.695312 -89.382812 Z M -50.167969 11.523438 " fill-rule="nonzero"/></g></g></g></g></g></g></g></g></g></g></g></g></g></g></g></g></g><path stroke-linecap="butt" transform="matrix(0, -0.747627, 0.747627, 0, 317.922009, 192.502147)" fill="none" stroke-linejoin="miter" d="M -0.00235249 0.997771 L 199.979476 0.997771 " stroke="#ffffff" stroke-width="2" stroke-opacity="1" stroke-miterlimit="4"/><g fill="#ffffff" fill-opacity="1"><g transform="translate(343.910646, 110.267429)"><g><path d="M 22.8125 -0.71875 C 22.613281 -0.71875 22.394531 -0.789062 22.15625 -0.9375 C 21.914062 -1.082031 21.75 -1.394531 21.65625 -1.875 L 10.71875 -46.265625 C 10.664062 -46.609375 10.519531 -46.765625 10.28125 -46.734375 C 10.039062 -46.710938 9.921875 -46.53125 9.921875 -46.1875 L 8.46875 -6.234375 C 8.425781 -4.878906 8.644531 -3.847656 9.125 -3.140625 C 9.601562 -2.441406 10.445312 -2 11.65625 -1.8125 L 12.59375 -1.671875 C 13.226562 -1.617188 13.546875 -1.328125 13.546875 -0.796875 C 13.546875 -0.265625 13.179688 0 12.453125 0 L 2.09375 0 C 1.375 0 1.015625 -0.265625 1.015625 -0.796875 C 1.015625 -1.328125 1.328125 -1.617188 1.953125 -1.671875 L 2.890625 -1.8125 C 4.148438 -2 5.007812 -2.441406 5.46875 -3.140625 C 5.925781 -3.847656 6.179688 -4.878906 6.234375 -6.234375 L 7.671875 -47.359375 C 7.722656 -48.367188 7.578125 -49.039062 7.234375 -49.375 C 6.898438 -49.71875 6.175781 -49.984375 5.0625 -50.171875 L 3.40625 -50.46875 C 2.78125 -50.613281 2.46875 -50.90625 2.46875 -51.34375 C 2.46875 -51.863281 2.828125 -52.125 3.546875 -52.125 L 12.234375 -52.125 C 13.734375 -52.125 14.648438 -51.398438 14.984375 -49.953125 L 23.75 -13.828125 C 23.84375 -13.492188 24 -13.328125 24.21875 -13.328125 C 24.4375 -13.328125 24.570312 -13.492188 24.625 -13.828125 L 33.734375 -50.328125 C 34.023438 -51.523438 34.800781 -52.125 36.0625 -52.125 L 44.609375 -52.125 C 45.328125 -52.125 45.6875 -51.863281 45.6875 -51.34375 C 45.6875 -50.90625 45.375 -50.613281 44.75 -50.46875 L 43.078125 -50.171875 C 42.066406 -49.984375 41.390625 -49.71875 41.046875 -49.375 C 40.710938 -49.039062 40.570312 -48.367188 40.625 -47.359375 L 42.0625 -4.78125 C 42.113281 -3.769531 42.285156 -3.09375 42.578125 -2.75 C 42.867188 -2.414062 43.519531 -2.148438 44.53125 -1.953125 L 46.1875 -1.671875 C 46.820312 -1.523438 47.140625 -1.234375 47.140625 -0.796875 C 47.140625 -0.265625 46.773438 0 46.046875 0 L 32.9375 0 C 32.21875 0 31.859375 -0.265625 31.859375 -0.796875 C 31.859375 -1.234375 32.171875 -1.523438 32.796875 -1.671875 L 34.46875 -1.953125 C 35.476562 -2.148438 36.148438 -2.414062 36.484375 -2.75 C 36.828125 -3.09375 36.972656 -3.769531 36.921875 -4.78125 L 35.703125 -46.1875 C 35.703125 -46.53125 35.59375 -46.710938 35.375 -46.734375 C 35.15625 -46.765625 35 -46.632812 34.90625 -46.34375 L 23.890625 -1.875 C 23.796875 -1.394531 23.640625 -1.082031 23.421875 -0.9375 C 23.203125 -0.789062 23 -0.71875 22.8125 -0.71875 Z M 22.8125 -0.71875 "/></g></g></g><g fill="#ffffff" fill-opacity="1"><g transform="translate(392.050887, 110.267429)"><g><path d="M -0.21875 0 C -0.9375 0 -1.296875 -0.238281 -1.296875 -0.71875 C -1.296875 -1.207031 -0.960938 -1.523438 -0.296875 -1.671875 L 0.796875 -1.875 C 1.765625 -2.070312 2.488281 -2.546875 2.96875 -3.296875 C 3.445312 -4.046875 3.859375 -5.09375 4.203125 -6.4375 L 15.421875 -51.703125 C 15.515625 -52.179688 15.671875 -52.492188 15.890625 -52.640625 C 16.109375 -52.785156 16.316406 -52.859375 16.515625 -52.859375 C 16.753906 -52.859375 16.976562 -52.785156 17.1875 -52.640625 C 17.40625 -52.492188 17.566406 -52.179688 17.671875 -51.703125 L 29.109375 -5.796875 C 29.441406 -4.441406 29.828125 -3.5 30.265625 -2.96875 C 30.703125 -2.4375 31.378906 -2.070312 32.296875 -1.875 L 33.375 -1.671875 C 34.050781 -1.523438 34.390625 -1.207031 34.390625 -0.71875 C 34.390625 -0.238281 34.03125 0 33.3125 0 L 20.921875 0 C 20.242188 0 19.90625 -0.265625 19.90625 -0.796875 C 19.90625 -1.328125 20.316406 -1.617188 21.140625 -1.671875 L 22.515625 -1.8125 C 23.335938 -1.90625 23.859375 -2.171875 24.078125 -2.609375 C 24.296875 -3.046875 24.28125 -3.789062 24.03125 -4.84375 L 21.28125 -16.078125 C 21 -17.328125 20.203125 -17.953125 18.890625 -17.953125 L 11.296875 -17.953125 C 10.035156 -17.953125 9.238281 -17.328125 8.90625 -16.078125 L 6.4375 -6.375 C 5.71875 -3.625 6.441406 -2.101562 8.609375 -1.8125 L 9.703125 -1.671875 C 10.523438 -1.523438 10.9375 -1.234375 10.9375 -0.796875 C 10.9375 -0.265625 10.597656 0 9.921875 0 Z M 11.078125 -20.125 L 19.046875 -20.125 C 19.816406 -20.125 20.128906 -20.535156 19.984375 -21.359375 L 15.34375 -40.765625 L 14.984375 -40.765625 L 10.140625 -21.359375 C 9.992188 -20.535156 10.304688 -20.125 11.078125 -20.125 Z M 11.078125 -20.125 "/></g></g></g><g fill="#ffffff" fill-opacity="1"><g transform="translate(425.133738, 110.267429)"><g><path d="M 19.90625 0.65625 C 17.300781 0.65625 14.992188 0.0390625 12.984375 -1.1875 C 10.984375 -2.425781 9.425781 -4.140625 8.3125 -6.328125 C 7.207031 -8.523438 6.65625 -11.050781 6.65625 -13.90625 L 6.65625 -47.359375 C 6.65625 -48.367188 6.5 -49.039062 6.1875 -49.375 C 5.875 -49.71875 5.210938 -49.984375 4.203125 -50.171875 L 2.53125 -50.46875 C 1.90625 -50.613281 1.59375 -50.90625 1.59375 -51.34375 C 1.59375 -51.863281 1.953125 -52.125 2.671875 -52.125 L 15.921875 -52.125 C 16.648438 -52.125 17.015625 -51.835938 17.015625 -51.265625 C 17.015625 -50.828125 16.75 -50.5625 16.21875 -50.46875 L 14.265625 -50.171875 C 13.296875 -50.023438 12.640625 -49.757812 12.296875 -49.375 C 11.960938 -48.988281 11.796875 -48.289062 11.796875 -47.28125 L 11.796875 -13.828125 C 11.796875 -10.160156 12.613281 -7.3125 14.25 -5.28125 C 15.894531 -3.257812 18.191406 -2.25 21.140625 -2.25 C 24.128906 -2.25 26.445312 -3.257812 28.09375 -5.28125 C 29.738281 -7.3125 30.5625 -10.160156 30.5625 -13.828125 L 30.5625 -45.828125 C 30.5625 -48.441406 29.738281 -49.890625 28.09375 -50.171875 L 26.140625 -50.46875 C 25.609375 -50.5625 25.34375 -50.828125 25.34375 -51.265625 C 25.34375 -51.835938 25.703125 -52.125 26.421875 -52.125 L 36.859375 -52.125 C 37.578125 -52.125 37.9375 -51.863281 37.9375 -51.34375 C 37.9375 -50.90625 37.625 -50.613281 37 -50.46875 L 35.328125 -50.171875 C 33.691406 -49.890625 32.875 -48.46875 32.875 -45.90625 L 32.875 -13.90625 C 32.875 -9.507812 31.691406 -5.984375 29.328125 -3.328125 C 26.960938 -0.671875 23.820312 0.65625 19.90625 0.65625 Z M 19.90625 0.65625 "/></g></g></g><g fill="#ffffff" fill-opacity="1"><g transform="translate(463.935504, 110.267429)"><g><path d="M 2.46875 0 C 1.738281 0 1.375 -0.265625 1.375 -0.796875 C 1.375 -1.234375 1.6875 -1.523438 2.3125 -1.671875 L 3.984375 -1.953125 C 4.992188 -2.148438 5.65625 -2.414062 5.96875 -2.75 C 6.28125 -3.09375 6.4375 -3.769531 6.4375 -4.78125 L 6.4375 -47.359375 C 6.4375 -48.367188 6.28125 -49.039062 5.96875 -49.375 C 5.65625 -49.71875 4.992188 -49.984375 3.984375 -50.171875 L 2.3125 -50.46875 C 1.6875 -50.613281 1.375 -50.90625 1.375 -51.34375 C 1.375 -51.863281 1.738281 -52.125 2.46875 -52.125 L 15.71875 -52.125 C 16.4375 -52.125 16.796875 -51.835938 16.796875 -51.265625 C 16.796875 -50.828125 16.53125 -50.5625 16 -50.46875 L 14.046875 -50.171875 C 13.035156 -50.023438 12.367188 -49.757812 12.046875 -49.375 C 11.734375 -48.988281 11.578125 -48.289062 11.578125 -47.28125 L 11.578125 -6.734375 C 11.578125 -4.992188 12.070312 -3.738281 13.0625 -2.96875 C 14.050781 -2.195312 15.296875 -1.8125 16.796875 -1.8125 C 17.910156 -1.8125 19.054688 -2.039062 20.234375 -2.5 C 21.421875 -2.957031 22.492188 -3.820312 23.453125 -5.09375 C 24.421875 -6.375 25.144531 -8.25 25.625 -10.71875 L 26.578125 -15.5625 C 26.722656 -16.195312 27.082031 -16.515625 27.65625 -16.515625 C 28.332031 -16.515625 28.625 -16.101562 28.53125 -15.28125 L 27.65625 -1.671875 C 27.5625 -0.554688 26.957031 0 25.84375 0 Z M 2.46875 0 "/></g></g></g><g fill="#ffffff" fill-opacity="1"><g transform="translate(493.833127, 110.267429)"><g><path d="M 2.46875 0 C 1.738281 0 1.375 -0.265625 1.375 -0.796875 C 1.375 -1.234375 1.6875 -1.523438 2.3125 -1.671875 L 3.984375 -1.953125 C 4.992188 -2.148438 5.65625 -2.414062 5.96875 -2.75 C 6.28125 -3.09375 6.4375 -3.769531 6.4375 -4.78125 L 6.4375 -47.359375 C 6.4375 -48.367188 6.28125 -49.039062 5.96875 -49.375 C 5.65625 -49.71875 4.992188 -49.984375 3.984375 -50.171875 L 2.3125 -50.46875 C 1.6875 -50.613281 1.375 -50.90625 1.375 -51.34375 C 1.375 -51.863281 1.738281 -52.125 2.46875 -52.125 L 15.5625 -52.125 C 16.289062 -52.125 16.65625 -51.863281 16.65625 -51.34375 C 16.65625 -50.90625 16.34375 -50.613281 15.71875 -50.46875 L 14.046875 -50.171875 C 13.035156 -49.984375 12.367188 -49.71875 12.046875 -49.375 C 11.734375 -49.039062 11.578125 -48.367188 11.578125 -47.359375 L 11.578125 -4.78125 C 11.578125 -3.769531 11.734375 -3.09375 12.046875 -2.75 C 12.367188 -2.414062 13.035156 -2.148438 14.046875 -1.953125 L 15.71875 -1.671875 C 16.34375 -1.523438 16.65625 -1.234375 16.65625 -0.796875 C 16.65625 -0.265625 16.289062 0 15.5625 0 Z M 2.46875 0 "/></g></g></g><g fill="#ffffff" fill-opacity="1"><g transform="translate(511.858574, 110.267429)"><g><path d="M 2.46875 0 C 1.738281 0 1.375 -0.265625 1.375 -0.796875 C 1.375 -1.234375 1.6875 -1.523438 2.3125 -1.671875 L 3.984375 -1.953125 C 4.992188 -2.148438 5.65625 -2.414062 5.96875 -2.75 C 6.28125 -3.09375 6.4375 -3.769531 6.4375 -4.78125 L 6.4375 -47.359375 C 6.4375 -48.367188 6.28125 -49.039062 5.96875 -49.375 C 5.65625 -49.71875 4.992188 -49.984375 3.984375 -50.171875 L 2.3125 -50.46875 C 1.6875 -50.613281 1.375 -50.90625 1.375 -51.34375 C 1.375 -51.863281 1.738281 -52.125 2.46875 -52.125 L 15.71875 -52.125 C 16.4375 -52.125 16.796875 -51.835938 16.796875 -51.265625 C 16.796875 -50.828125 16.53125 -50.5625 16 -50.46875 L 14.046875 -50.171875 C 13.035156 -50.023438 12.367188 -49.757812 12.046875 -49.375 C 11.734375 -48.988281 11.578125 -48.289062 11.578125 -47.28125 L 11.578125 -27.734375 C 11.578125 -27.242188 11.722656 -26.953125 12.015625 -26.859375 C 12.304688 -26.765625 12.570312 -26.9375 12.8125 -27.375 L 24.6875 -45.984375 C 26.28125 -48.441406 26.132812 -49.835938 24.25 -50.171875 L 22.59375 -50.46875 C 21.96875 -50.613281 21.65625 -50.925781 21.65625 -51.40625 C 21.65625 -51.882812 21.988281 -52.125 22.65625 -52.125 L 34.96875 -52.125 C 35.644531 -52.125 35.984375 -51.863281 35.984375 -51.34375 C 35.984375 -50.8125 35.671875 -50.519531 35.046875 -50.46875 L 33.671875 -50.328125 C 32.171875 -50.179688 30.9375 -49.742188 29.96875 -49.015625 C 29.007812 -48.296875 27.925781 -46.992188 26.71875 -45.109375 L 18.53125 -32.296875 C 18.050781 -31.472656 18.03125 -30.675781 18.46875 -29.90625 L 32.078125 -4.265625 C 32.460938 -3.492188 32.859375 -2.9375 33.265625 -2.59375 C 33.679688 -2.257812 34.175781 -2.046875 34.75 -1.953125 L 36.5 -1.671875 C 37.070312 -1.617188 37.359375 -1.328125 37.359375 -0.796875 C 37.359375 -0.265625 37.019531 0 36.34375 0 L 23.453125 0 C 22.785156 0 22.453125 -0.265625 22.453125 -0.796875 C 22.453125 -1.273438 22.765625 -1.566406 23.390625 -1.671875 L 24.625 -1.8125 C 26.5 -2.050781 26.882812 -3.234375 25.78125 -5.359375 L 15.34375 -25.203125 C 15.15625 -25.585938 14.941406 -25.789062 14.703125 -25.8125 C 14.460938 -25.832031 14.21875 -25.648438 13.96875 -25.265625 L 12.453125 -22.875 C 12.117188 -22.394531 11.890625 -21.9375 11.765625 -21.5 C 11.640625 -21.070312 11.578125 -20.519531 11.578125 -19.84375 L 11.578125 -4.84375 C 11.578125 -3.832031 11.734375 -3.132812 12.046875 -2.75 C 12.367188 -2.363281 13.035156 -2.097656 14.046875 -1.953125 L 16 -1.671875 C 16.53125 -1.566406 16.796875 -1.300781 16.796875 -0.875 C 16.796875 -0.289062 16.4375 0 15.71875 0 Z M 2.46875 0 "/></g></g></g><g fill="#ffffff" fill-opacity="1"><g transform="translate(343.910646, 173.068057)"><g><path d="M 21.0625 0.65625 C 17.15625 0.65625 13.847656 -0.453125 11.140625 -2.671875 C 8.441406 -4.898438 6.390625 -8.03125 4.984375 -12.0625 C 3.585938 -16.09375 2.890625 -20.859375 2.890625 -26.359375 C 2.890625 -31.671875 3.707031 -36.316406 5.34375 -40.296875 C 6.988281 -44.273438 9.25 -47.363281 12.125 -49.5625 C 15 -51.757812 18.296875 -52.859375 22.015625 -52.859375 C 23.890625 -52.859375 25.597656 -52.675781 27.140625 -52.3125 C 28.691406 -51.945312 30.046875 -51.476562 31.203125 -50.90625 C 31.828125 -50.5625 32.140625 -50.050781 32.140625 -49.375 L 32.359375 -38.375 C 32.359375 -37.550781 32.070312 -37.140625 31.5 -37.140625 C 30.96875 -37.140625 30.628906 -37.453125 30.484375 -38.078125 L 29.90625 -40.265625 C 28.84375 -44.265625 27.632812 -47.007812 26.28125 -48.5 C 24.925781 -50 23.066406 -50.75 20.703125 -50.75 C 17.179688 -50.75 14.273438 -48.660156 11.984375 -44.484375 C 9.691406 -40.316406 8.546875 -34.273438 8.546875 -26.359375 C 8.546875 -18.203125 9.710938 -11.984375 12.046875 -7.703125 C 14.390625 -3.429688 17.394531 -1.296875 21.0625 -1.296875 C 23.039062 -1.296875 24.535156 -1.726562 25.546875 -2.59375 C 26.566406 -3.46875 27.078125 -5.085938 27.078125 -7.453125 L 27.078125 -23.3125 C 27.078125 -24.320312 26.921875 -25.019531 26.609375 -25.40625 C 26.296875 -25.800781 25.632812 -26.046875 24.625 -26.140625 L 21.796875 -26.421875 C 21.171875 -26.472656 20.859375 -26.765625 20.859375 -27.296875 C 20.859375 -27.828125 21.21875 -28.09375 21.9375 -28.09375 L 35.1875 -28.09375 C 35.914062 -28.09375 36.28125 -27.800781 36.28125 -27.21875 C 36.28125 -26.789062 36.015625 -26.523438 35.484375 -26.421875 L 34.390625 -26.28125 C 33.328125 -26.132812 32.695312 -25.84375 32.5 -25.40625 C 32.3125 -24.976562 32.21875 -24.257812 32.21875 -23.25 L 32.21875 -3.625 C 32.21875 -3.09375 32.070312 -2.664062 31.78125 -2.34375 C 31.5 -2.03125 30.992188 -1.679688 30.265625 -1.296875 C 29.109375 -0.722656 27.78125 -0.253906 26.28125 0.109375 C 24.78125 0.472656 23.039062 0.65625 21.0625 0.65625 Z M 21.0625 0.65625 "/></g></g></g><g fill="#ffffff" fill-opacity="1"><g transform="translate(381.626542, 173.068057)"><g><path d="M -0.21875 0 C -0.9375 0 -1.296875 -0.238281 -1.296875 -0.71875 C -1.296875 -1.207031 -0.960938 -1.523438 -0.296875 -1.671875 L 0.796875 -1.875 C 1.765625 -2.070312 2.488281 -2.546875 2.96875 -3.296875 C 3.445312 -4.046875 3.859375 -5.09375 4.203125 -6.4375 L 15.421875 -51.703125 C 15.515625 -52.179688 15.671875 -52.492188 15.890625 -52.640625 C 16.109375 -52.785156 16.316406 -52.859375 16.515625 -52.859375 C 16.753906 -52.859375 16.976562 -52.785156 17.1875 -52.640625 C 17.40625 -52.492188 17.566406 -52.179688 17.671875 -51.703125 L 29.109375 -5.796875 C 29.441406 -4.441406 29.828125 -3.5 30.265625 -2.96875 C 30.703125 -2.4375 31.378906 -2.070312 32.296875 -1.875 L 33.375 -1.671875 C 34.050781 -1.523438 34.390625 -1.207031 34.390625 -0.71875 C 34.390625 -0.238281 34.03125 0 33.3125 0 L 20.921875 0 C 20.242188 0 19.90625 -0.265625 19.90625 -0.796875 C 19.90625 -1.328125 20.316406 -1.617188 21.140625 -1.671875 L 22.515625 -1.8125 C 23.335938 -1.90625 23.859375 -2.171875 24.078125 -2.609375 C 24.296875 -3.046875 24.28125 -3.789062 24.03125 -4.84375 L 21.28125 -16.078125 C 21 -17.328125 20.203125 -17.953125 18.890625 -17.953125 L 11.296875 -17.953125 C 10.035156 -17.953125 9.238281 -17.328125 8.90625 -16.078125 L 6.4375 -6.375 C 5.71875 -3.625 6.441406 -2.101562 8.609375 -1.8125 L 9.703125 -1.671875 C 10.523438 -1.523438 10.9375 -1.234375 10.9375 -0.796875 C 10.9375 -0.265625 10.597656 0 9.921875 0 Z M 11.078125 -20.125 L 19.046875 -20.125 C 19.816406 -20.125 20.128906 -20.535156 19.984375 -21.359375 L 15.34375 -40.765625 L 14.984375 -40.765625 L 10.140625 -21.359375 C 9.992188 -20.535156 10.304688 -20.125 11.078125 -20.125 Z M 11.078125 -20.125 "/></g></g></g><g fill="#ffffff" fill-opacity="1"><g transform="translate(414.709393, 173.068057)"><g><path d="M 1.015625 15.5625 C -0.480469 15.5625 -1.703125 15.160156 -2.640625 14.359375 C -3.585938 13.566406 -4.0625 12.519531 -4.0625 11.21875 C -4.0625 10.257812 -3.78125 9.460938 -3.21875 8.828125 C -2.664062 8.203125 -1.957031 7.890625 -1.09375 7.890625 C -0.269531 7.890625 0.304688 8.128906 0.640625 8.609375 C 0.984375 9.097656 1.265625 9.65625 1.484375 10.28125 C 1.703125 10.90625 1.953125 11.457031 2.234375 11.9375 C 2.523438 12.425781 2.988281 12.671875 3.625 12.671875 C 4.539062 12.671875 5.238281 12.140625 5.71875 11.078125 C 6.195312 10.015625 6.4375 8.519531 6.4375 6.59375 L 6.4375 -47.359375 C 6.4375 -48.367188 6.28125 -49.039062 5.96875 -49.375 C 5.65625 -49.71875 4.992188 -49.984375 3.984375 -50.171875 L 2.3125 -50.46875 C 1.6875 -50.613281 1.375 -50.90625 1.375 -51.34375 C 1.375 -51.863281 1.738281 -52.125 2.46875 -52.125 L 15.5625 -52.125 C 16.289062 -52.125 16.65625 -51.863281 16.65625 -51.34375 C 16.65625 -50.90625 16.34375 -50.613281 15.71875 -50.46875 L 14.046875 -50.171875 C 13.035156 -49.984375 12.367188 -49.71875 12.046875 -49.375 C 11.734375 -49.039062 11.578125 -48.367188 11.578125 -47.359375 L 11.578125 -3.1875 C 11.578125 2.601562 10.632812 7.175781 8.75 10.53125 C 6.875 13.882812 4.296875 15.5625 1.015625 15.5625 Z M 1.015625 15.5625 "/></g></g></g><g fill="#ffffff" fill-opacity="1"><g transform="translate(432.734839, 173.068057)"><g><path d="M 1.015625 15.5625 C -0.480469 15.5625 -1.703125 15.160156 -2.640625 14.359375 C -3.585938 13.566406 -4.0625 12.519531 -4.0625 11.21875 C -4.0625 10.257812 -3.78125 9.460938 -3.21875 8.828125 C -2.664062 8.203125 -1.957031 7.890625 -1.09375 7.890625 C -0.269531 7.890625 0.304688 8.128906 0.640625 8.609375 C 0.984375 9.097656 1.265625 9.65625 1.484375 10.28125 C 1.703125 10.90625 1.953125 11.457031 2.234375 11.9375 C 2.523438 12.425781 2.988281 12.671875 3.625 12.671875 C 4.539062 12.671875 5.238281 12.140625 5.71875 11.078125 C 6.195312 10.015625 6.4375 8.519531 6.4375 6.59375 L 6.4375 -47.359375 C 6.4375 -48.367188 6.28125 -49.039062 5.96875 -49.375 C 5.65625 -49.71875 4.992188 -49.984375 3.984375 -50.171875 L 2.3125 -50.46875 C 1.6875 -50.613281 1.375 -50.90625 1.375 -51.34375 C 1.375 -51.863281 1.738281 -52.125 2.46875 -52.125 L 15.5625 -52.125 C 16.289062 -52.125 16.65625 -51.863281 16.65625 -51.34375 C 16.65625 -50.90625 16.34375 -50.613281 15.71875 -50.46875 L 14.046875 -50.171875 C 13.035156 -49.984375 12.367188 -49.71875 12.046875 -49.375 C 11.734375 -49.039062 11.578125 -48.367188 11.578125 -47.359375 L 11.578125 -3.1875 C 11.578125 2.601562 10.632812 7.175781 8.75 10.53125 C 6.875 13.882812 4.296875 15.5625 1.015625 15.5625 Z M 1.015625 15.5625 "/></g></g></g><g fill="#ffffff" fill-opacity="1"><g transform="translate(450.760286, 173.068057)"><g><path d="M -0.21875 0 C -0.9375 0 -1.296875 -0.238281 -1.296875 -0.71875 C -1.296875 -1.207031 -0.960938 -1.523438 -0.296875 -1.671875 L 0.796875 -1.875 C 1.765625 -2.070312 2.488281 -2.546875 2.96875 -3.296875 C 3.445312 -4.046875 3.859375 -5.09375 4.203125 -6.4375 L 15.421875 -51.703125 C 15.515625 -52.179688 15.671875 -52.492188 15.890625 -52.640625 C 16.109375 -52.785156 16.316406 -52.859375 16.515625 -52.859375 C 16.753906 -52.859375 16.976562 -52.785156 17.1875 -52.640625 C 17.40625 -52.492188 17.566406 -52.179688 17.671875 -51.703125 L 29.109375 -5.796875 C 29.441406 -4.441406 29.828125 -3.5 30.265625 -2.96875 C 30.703125 -2.4375 31.378906 -2.070312 32.296875 -1.875 L 33.375 -1.671875 C 34.050781 -1.523438 34.390625 -1.207031 34.390625 -0.71875 C 34.390625 -0.238281 34.03125 0 33.3125 0 L 20.921875 0 C 20.242188 0 19.90625 -0.265625 19.90625 -0.796875 C 19.90625 -1.328125 20.316406 -1.617188 21.140625 -1.671875 L 22.515625 -1.8125 C 23.335938 -1.90625 23.859375 -2.171875 24.078125 -2.609375 C 24.296875 -3.046875 24.28125 -3.789062 24.03125 -4.84375 L 21.28125 -16.078125 C 21 -17.328125 20.203125 -17.953125 18.890625 -17.953125 L 11.296875 -17.953125 C 10.035156 -17.953125 9.238281 -17.328125 8.90625 -16.078125 L 6.4375 -6.375 C 5.71875 -3.625 6.441406 -2.101562 8.609375 -1.8125 L 9.703125 -1.671875 C 10.523438 -1.523438 10.9375 -1.234375 10.9375 -0.796875 C 10.9375 -0.265625 10.597656 0 9.921875 0 Z M 11.078125 -20.125 L 19.046875 -20.125 C 19.816406 -20.125 20.128906 -20.535156 19.984375 -21.359375 L 15.34375 -40.765625 L 14.984375 -40.765625 L 10.140625 -21.359375 C 9.992188 -20.535156 10.304688 -20.125 11.078125 -20.125 Z M 11.078125 -20.125 "/></g></g></g><g fill="#ffffff" fill-opacity="1"><g transform="translate(483.843136, 173.068057)"><g><path d="M 32.578125 0.65625 C 28.378906 0.65625 25.703125 -2.097656 24.546875 -7.609375 L 22.875 -15.640625 C 22.34375 -18.242188 21.75 -20.222656 21.09375 -21.578125 C 20.445312 -22.929688 19.554688 -23.847656 18.421875 -24.328125 C 17.285156 -24.804688 15.726562 -25.046875 13.75 -25.046875 C 13.082031 -25.046875 12.550781 -24.863281 12.15625 -24.5 C 11.769531 -24.144531 11.578125 -23.703125 11.578125 -23.171875 L 11.578125 -5.0625 C 11.578125 -4.050781 11.769531 -3.363281 12.15625 -3 C 12.550781 -2.644531 13.421875 -2.34375 14.765625 -2.09375 L 17.453125 -1.671875 C 17.984375 -1.566406 18.25 -1.300781 18.25 -0.875 C 18.25 -0.289062 17.882812 0 17.15625 0 L 2.46875 0 C 1.738281 0 1.375 -0.265625 1.375 -0.796875 C 1.375 -1.234375 1.6875 -1.523438 2.3125 -1.671875 L 3.984375 -1.953125 C 4.992188 -2.148438 5.65625 -2.414062 5.96875 -2.75 C 6.28125 -3.09375 6.4375 -3.769531 6.4375 -4.78125 L 6.4375 -47.359375 C 6.4375 -48.367188 6.28125 -49.039062 5.96875 -49.375 C 5.65625 -49.71875 4.992188 -49.984375 3.984375 -50.171875 L 2.3125 -50.46875 C 1.6875 -50.613281 1.375 -50.90625 1.375 -51.34375 C 1.375 -51.863281 1.738281 -52.125 2.46875 -52.125 L 17.15625 -52.125 C 20.007812 -52.125 22.546875 -51.566406 24.765625 -50.453125 C 26.984375 -49.347656 28.71875 -47.816406 29.96875 -45.859375 C 31.226562 -43.910156 31.859375 -41.65625 31.859375 -39.09375 C 31.859375 -36.050781 30.941406 -33.3125 29.109375 -30.875 C 27.273438 -28.4375 24.957031 -26.710938 22.15625 -25.703125 C 21.820312 -25.609375 21.640625 -25.453125 21.609375 -25.234375 C 21.585938 -25.015625 21.742188 -24.832031 22.078125 -24.6875 C 23.628906 -23.96875 24.847656 -22.953125 25.734375 -21.640625 C 26.628906 -20.335938 27.316406 -18.601562 27.796875 -16.4375 L 29.390625 -9.046875 C 29.921875 -6.535156 30.546875 -4.75 31.265625 -3.6875 C 31.992188 -2.625 32.914062 -2.09375 34.03125 -2.09375 C 34.414062 -2.09375 34.765625 -2.15625 35.078125 -2.28125 C 35.390625 -2.40625 35.789062 -2.632812 36.28125 -2.96875 C 36.664062 -3.207031 37.023438 -3.265625 37.359375 -3.140625 C 37.703125 -3.023438 37.875 -2.773438 37.875 -2.390625 C 37.875 -1.566406 37.34375 -0.851562 36.28125 -0.25 C 35.21875 0.351562 33.984375 0.65625 32.578125 0.65625 Z M 16.4375 -26.859375 C 19.71875 -26.859375 22.203125 -27.957031 23.890625 -30.15625 C 25.578125 -32.351562 26.421875 -35.285156 26.421875 -38.953125 C 26.421875 -42.523438 25.441406 -45.3125 23.484375 -47.3125 C 21.535156 -49.320312 18.847656 -50.328125 15.421875 -50.328125 C 12.859375 -50.328125 11.578125 -49.359375 11.578125 -47.421875 L 11.578125 -30.84375 C 11.578125 -28.1875 13.195312 -26.859375 16.4375 -26.859375 Z M 16.4375 -26.859375 "/></g></g></g></svg>